<?xml version="1.0" encoding="iso-8859-1"?>
<!-- Generator: Adobe Illustrator 16.0.0, SVG Export Plug-In . SVG Version: 6.00 Build 0)  -->
<!DOCTYPE svg PUBLIC "-//W3C//DTD SVG 1.1//EN" "http://www.w3.org/Graphics/SVG/1.1/DTD/svg11.dtd">
<svg version="1.1" id="Layer_1" xmlns="http://www.w3.org/2000/svg" xmlns:xlink="http://www.w3.org/1999/xlink" x="0px" y="0px"
	 width="18.449px" height="25.654px" viewBox="0 0 18.449 25.654" style="enable-background:new 0 0 18.449 25.654;"
	 xml:space="preserve">
<g>
	<path d="M16.185,0.018L2.658,0.009C2.617,0.005,2.547,0,2.455,0C1.322,0,0,0.679,0,2.588v23.066h18.449V2.588
		C18.449,0.885,16.968,0.162,16.185,0.018z M17.217,24.364H1.232V2.588c0-0.321,0-1.298,1.223-1.298
		c0.058,0,0.098,0.003,0.104,0.003l13.458,0.005c0.228,0.053,1.2,0.335,1.2,1.29V24.364z"/>
	<rect x="2.668" y="10.035" width="5.816" height="1.611"/>
	<rect x="9.955" y="10.035" width="5.816" height="1.611"/>
	<rect x="2.737" y="13.042" width="2.342" height="2.476"/>
	<rect x="6.197" y="13.042" width="2.342" height="2.476"/>
	<rect x="9.779" y="13.042" width="2.342" height="2.476"/>
	<rect x="13.449" y="13.042" width="2.342" height="2.476"/>
	<rect x="2.737" y="16.522" width="2.342" height="2.476"/>
	<rect x="6.197" y="16.522" width="2.342" height="2.476"/>
	<rect x="9.711" y="16.522" width="2.342" height="2.476"/>
	<rect x="13.381" y="16.522" width="2.342" height="2.476"/>
	<rect x="2.658" y="20.002" width="2.343" height="2.476"/>
	<rect x="6.119" y="20.002" width="2.342" height="2.476"/>
	<rect x="9.779" y="20.002" width="2.342" height="2.476"/>
	<rect x="13.381" y="20.002" width="2.341" height="2.476"/>
	<path d="M15.771,3.451H2.658v4.755h13.112V3.451z M9.795,7.074H9.128V5.716H8.607V5.229c0.081,0.002,0.16-0.005,0.236-0.022
		C8.92,5.19,8.989,5.162,9.052,5.123c0.062-0.04,0.113-0.094,0.152-0.159c0.04-0.067,0.062-0.148,0.066-0.246h0.525V7.074z
		 M12.418,7.074h-1.932c-0.006-0.115,0.004-0.221,0.034-0.318c0.028-0.097,0.071-0.185,0.126-0.265
		c0.047-0.067,0.101-0.13,0.161-0.189c0.061-0.059,0.126-0.113,0.196-0.164c0.069-0.052,0.141-0.099,0.217-0.146
		c0.074-0.046,0.147-0.091,0.217-0.136c0.028-0.019,0.059-0.039,0.095-0.062c0.035-0.022,0.068-0.047,0.1-0.074
		c0.03-0.027,0.057-0.058,0.076-0.091c0.021-0.034,0.031-0.072,0.031-0.116c0-0.108-0.027-0.183-0.079-0.226
		c-0.052-0.041-0.116-0.062-0.19-0.062c-0.128,0-0.217,0.044-0.268,0.134s-0.074,0.206-0.07,0.35h-0.601
		c-0.009-0.163,0.007-0.308,0.048-0.433c0.041-0.126,0.102-0.233,0.186-0.32c0.083-0.086,0.186-0.153,0.306-0.198
		c0.121-0.045,0.256-0.068,0.405-0.068c0.134,0,0.258,0.016,0.37,0.047c0.112,0.03,0.208,0.076,0.288,0.136
		c0.081,0.062,0.142,0.139,0.186,0.232c0.044,0.094,0.065,0.204,0.065,0.328c0,0.151-0.031,0.278-0.093,0.382
		c-0.062,0.103-0.141,0.194-0.237,0.271c-0.097,0.079-0.202,0.149-0.317,0.212c-0.116,0.063-0.226,0.129-0.33,0.196v0.003h1.009
		V7.074z M14.503,6.597c-0.029,0.086-0.079,0.166-0.149,0.241c-0.073,0.074-0.168,0.137-0.289,0.188s-0.272,0.077-0.453,0.077
		c-0.166,0-0.308-0.019-0.423-0.056c-0.116-0.037-0.21-0.084-0.284-0.144c-0.073-0.059-0.13-0.124-0.169-0.195
		c-0.04-0.071-0.068-0.141-0.087-0.21c-0.017-0.068-0.027-0.131-0.028-0.188c0-0.056,0-0.099,0.001-0.129h0.609
		c-0.004,0.128,0.024,0.221,0.086,0.282c0.03,0.038,0.068,0.066,0.114,0.082s0.097,0.023,0.151,0.023
		c0.093,0,0.165-0.019,0.218-0.058c0.053-0.04,0.081-0.109,0.081-0.206c0-0.052-0.009-0.094-0.026-0.125
		c-0.017-0.031-0.039-0.056-0.067-0.074c-0.028-0.019-0.06-0.029-0.096-0.036c-0.036-0.005-0.073-0.008-0.11-0.008
		c-0.047,0-0.083,0.001-0.11,0.005c-0.026,0.003-0.052,0.007-0.075,0.011v-0.46c0.022,0.001,0.049,0.005,0.078,0.008
		c0.03,0.003,0.065,0.005,0.107,0.005c0.035,0,0.069-0.003,0.105-0.007c0.035-0.005,0.067-0.015,0.098-0.031
		c0.029-0.016,0.054-0.039,0.074-0.065c0.02-0.028,0.029-0.065,0.029-0.11c0-0.037-0.009-0.068-0.027-0.096
		c-0.018-0.026-0.041-0.048-0.069-0.064c-0.027-0.016-0.059-0.027-0.094-0.035c-0.036-0.008-0.069-0.012-0.101-0.012
		c-0.042,0-0.083,0.007-0.122,0.019c-0.039,0.013-0.072,0.031-0.099,0.056c-0.028,0.025-0.049,0.055-0.066,0.091
		c-0.017,0.036-0.023,0.079-0.021,0.128h-0.602c0.002-0.14,0.028-0.26,0.077-0.362c0.048-0.101,0.116-0.187,0.202-0.253
		c0.086-0.065,0.184-0.115,0.295-0.147c0.11-0.033,0.229-0.049,0.355-0.049c0.162,0,0.298,0.022,0.408,0.066
		c0.11,0.044,0.198,0.098,0.266,0.161s0.115,0.129,0.144,0.199c0.029,0.07,0.043,0.129,0.043,0.179c0,0.125-0.016,0.22-0.046,0.287
		c-0.031,0.067-0.065,0.116-0.101,0.147c-0.036,0.032-0.07,0.051-0.101,0.057c-0.031,0.007-0.046,0.012-0.046,0.015v0.007
		c0,0.004,0.009,0.009,0.027,0.013c0.019,0.004,0.041,0.012,0.067,0.025c0.027,0.013,0.056,0.029,0.088,0.05
		c0.032,0.021,0.062,0.053,0.089,0.092c0.025,0.04,0.049,0.089,0.066,0.149c0.018,0.059,0.027,0.134,0.027,0.222
		C14.547,6.432,14.533,6.511,14.503,6.597z"/>
</g>
<g>
</g>
<g>
</g>
<g>
</g>
<g>
</g>
<g>
</g>
<g>
</g>
<g>
</g>
<g>
</g>
<g>
</g>
<g>
</g>
<g>
</g>
<g>
</g>
<g>
</g>
<g>
</g>
<g>
</g>
</svg>
