<?xml version="1.0" encoding="utf-8"?>
<!-- Generator: Adobe Illustrator 16.0.0, SVG Export Plug-In . SVG Version: 6.00 Build 0)  -->
<!DOCTYPE svg PUBLIC "-//W3C//DTD SVG 1.1//EN" "http://www.w3.org/Graphics/SVG/1.1/DTD/svg11.dtd">
<svg version="1.1" id="Layer_1" xmlns="http://www.w3.org/2000/svg" xmlns:xlink="http://www.w3.org/1999/xlink" x="0px" y="0px"
	 width="50px" height="50px" viewBox="0 0 50 50" enable-background="new 0 0 50 50" xml:space="preserve">
<g>
	<path d="M31.762,15.386c0.688,0.216,1.278,0.516,1.692,0.905h5.578v9.637c0.292,0.334,0.462,0.727,0.462,1.182v0.422
		c0,0.247-0.053,0.474-0.146,0.686l0.146,0.004v1.098c0,0.236-0.047,0.455-0.132,0.658l0.132,0.004v1.098
		c0,0.215-0.043,0.415-0.114,0.602h0.558V15.386H31.762z"/>
	<path d="M25.726,15.386H10.063v16.295h13.778c-0.224-0.265-0.366-0.567-0.414-0.905H10.968V16.292h13.065
		C24.448,15.902,25.039,15.602,25.726,15.386z"/>
	<path d="M33.18,18.753c0,0.98-1.986,1.774-4.436,1.774c-2.451,0-4.436-0.794-4.436-1.774v1.097c0,0.98,1.984,1.774,4.436,1.774
		c2.449,0,4.436-0.794,4.436-1.774V18.753z"/>
	<path d="M33.18,20.513c0,0.98-1.986,1.773-4.436,1.773c-2.451,0-4.436-0.793-4.436-1.773v1.098c0,0.98,1.984,1.774,4.436,1.774
		c2.449,0,4.436-0.794,4.436-1.774V20.513z"/>
	<path d="M33.18,22.273c0,0.98-1.986,1.774-4.436,1.774c-2.451,0-4.436-0.794-4.436-1.774v1.098c0,0.98,1.984,1.774,4.436,1.774
		c2.449,0,4.436-0.793,4.436-1.774V22.273z"/>
	<path d="M33.18,17.641c0-0.98-1.986-1.774-4.436-1.774c-2.451,0-4.436,0.794-4.436,1.774v0.422c0,0.98,1.984,1.774,4.436,1.774
		c2.449,0,4.436-0.793,4.436-1.774V17.641z M28.744,18.972c-2.438,0-3.992-0.788-3.992-1.331s1.555-1.331,3.992-1.331
		c2.437,0,3.991,0.788,3.991,1.331S31.181,18.972,28.744,18.972z"/>
	<path d="M33.18,24.701v-0.668c0,0.251-0.133,0.49-0.368,0.707C32.934,24.726,33.056,24.712,33.18,24.701z"/>
	<path d="M28.744,25.808c-2.451,0-4.436-0.794-4.436-1.774v1.098c0,0.98,1.984,1.774,4.436,1.774c0.107,0,0.214-0.004,0.319-0.007
		c0.066-0.448,0.339-0.831,0.757-1.146C29.475,25.787,29.115,25.808,28.744,25.808z"/>
	<path d="M24.309,25.914v1.098c0,0.98,1.984,1.774,4.436,1.774c0.101,0,0.199-0.004,0.298-0.006c0-0.493,0-0.891,0-1.098
		c-0.099,0.003-0.197,0.006-0.298,0.006C26.293,27.688,24.309,26.895,24.309,25.914z"/>
	<path d="M24.309,27.674v1.098c0,0.98,1.984,1.774,4.436,1.774c0.101,0,0.199-0.004,0.298-0.006c0-0.367,0-0.74,0-1.098
		c-0.099,0.003-0.197,0.006-0.298,0.006C26.293,29.449,24.309,28.655,24.309,27.674z"/>
	<path d="M24.309,29.435v1.098c0,0.98,1.984,1.774,4.436,1.774c0.101,0,0.199-0.003,0.298-0.005c0-0.29,0-0.671,0-1.098
		c-0.099,0.002-0.197,0.006-0.298,0.006C26.293,31.209,24.309,30.415,24.309,29.435z"/>
	<path d="M34.153,29.996c-2.449,0-4.435-0.794-4.435-1.774v1.098c0,0.98,1.985,1.774,4.435,1.774c2.451,0,4.436-0.794,4.436-1.774
		v-1.098C38.589,29.202,36.604,29.996,34.153,29.996z"/>
	<path d="M34.153,31.756c-2.449,0-4.435-0.793-4.435-1.774v1.098c0,0.98,1.985,1.774,4.435,1.774c2.451,0,4.436-0.794,4.436-1.774
		v-1.098C38.589,30.962,36.604,31.756,34.153,31.756z"/>
	<path d="M34.153,33.516c-2.449,0-4.435-0.794-4.435-1.774v1.098c0,0.98,1.985,1.774,4.435,1.774c2.451,0,4.436-0.794,4.436-1.774
		v-1.098C38.589,32.722,36.604,33.516,34.153,33.516z"/>
	<path d="M34.153,25.335c-2.449,0-4.435,0.794-4.435,1.774v0.422c0,0.98,1.985,1.774,4.435,1.774c2.451,0,4.436-0.793,4.436-1.774
		V27.11C38.589,26.129,36.604,25.335,34.153,25.335z M34.153,28.44c-2.437,0-3.991-0.788-3.991-1.331s1.555-1.331,3.991-1.331
		c2.438,0,3.992,0.788,3.992,1.331S36.591,28.44,34.153,28.44z"/>
	<path d="M23.403,30.323V17.641c0-0.332,0.093-0.629,0.255-0.896H11.421v13.579H23.403z M15.804,20.532
		c0.392-0.39,0.911-0.616,1.557-0.68v-0.985h0.773v0.964c0.745,0.035,1.301,0.155,1.668,0.36v1.429
		c-0.494-0.299-1.051-0.483-1.668-0.55v2.007c0.773,0.279,1.327,0.597,1.663,0.956c0.335,0.358,0.503,0.792,0.503,1.3
		c0,0.585-0.188,1.058-0.562,1.416s-0.909,0.576-1.604,0.654v1.149H17.36v-1.117c-0.717-0.004-1.383-0.167-2.001-0.487V25.48
		c0.205,0.166,0.51,0.32,0.916,0.461c0.405,0.141,0.768,0.222,1.085,0.243v-1.927c-0.825-0.307-1.391-0.64-1.691-0.998
		c-0.302-0.358-0.453-0.795-0.453-1.311C15.216,21.394,15.412,20.922,15.804,20.532z"/>
	<path d="M34.153,24.43c1.661,0,3.399,0.352,4.426,1.095v-8.781H33.83c0.162,0.268,0.255,0.565,0.255,0.896v6.791
		C34.107,24.432,34.131,24.43,34.153,24.43z"/>
	<path d="M17.36,22.769v-1.678c-0.49,0.088-0.736,0.344-0.736,0.767C16.624,22.222,16.87,22.525,17.36,22.769z"/>
	<path d="M18.891,25.406c0-0.346-0.252-0.628-0.757-0.847v1.604C18.639,26.085,18.891,25.833,18.891,25.406z"/>
</g>
</svg>
